<svg height="105.73974168259758" width="217.4633287577145" style="width: 217.463px; height: 105.74px; position: absolute; top: 50%; left: 50%; transform: translate(-50%, -50%) scale(1); z-index: 0; cursor: pointer;"><defs id="SvgjsDefs1001"></defs><g id="SvgjsG1007" featurekey="G09qjj-0" transform="matrix(1.5624592091361522,0,0,1.5624592091361522,-22.89700186927207,-14.706348396504065)" fill="#b8b0b0"><g xmlns="http://www.w3.org/2000/svg"><path style="" d="M28.793,76.805c-0.09,0.231-0.025,0.047-0.047,0.088l-0.002-0.033l-0.001-0.062l-0.005-0.125   l-0.013-0.256l-0.018-0.506l-0.043-1.019l-0.083-2.029l-0.171-4.064l-0.012-0.254l-0.006-0.123L28.384,68.3   c-0.014-0.162-0.034-0.326-0.062-0.488c-0.053-0.323-0.134-0.64-0.244-0.948c-0.22-0.616-0.549-1.193-0.964-1.7   c-0.206-0.256-0.433-0.49-0.678-0.713c-0.062-0.054-0.123-0.108-0.186-0.16l-0.095-0.078l-0.099-0.08   c-0.131-0.108-0.265-0.216-0.395-0.326c-0.523-0.44-1.031-0.896-1.525-1.368c-1.971-1.888-3.694-4.037-5.103-6.376   c-1.413-2.341-2.505-4.873-3.243-7.506c-0.737-2.633-1.117-5.366-1.135-8.099c-0.016-2.735,0.327-5.475,1.031-8.119   c0.705-2.646,1.769-5.194,3.149-7.558c1.38-2.365,3.08-4.542,5.033-6.459c1.953-1.919,4.161-3.579,6.547-4.922   c2.386-1.342,4.952-2.368,7.608-3.038c2.654-0.672,5.399-0.988,8.137-0.946c2.739,0.042,5.472,0.44,8.107,1.189   c1.315,0.378,2.609,0.838,3.864,1.388c1.257,0.548,2.476,1.179,3.646,1.889c2.343,1.416,4.5,3.146,6.394,5.127   c0.235,0.247,0.469,0.499,0.696,0.753l0.171,0.191l0.168,0.196c0.116,0.133,0.227,0.263,0.332,0.4   c0.433,0.541,0.829,1.114,1.173,1.719c0.344,0.602,0.644,1.232,0.885,1.883c0.245,0.649,0.438,1.314,0.598,1.986   c0.312,1.342,0.481,2.7,0.646,4.045c0.162,1.347,0.321,2.687,0.54,4.016l-0.028-0.089l2.585,5.109l1.293,2.55l0.648,1.276   c0.221,0.441,0.41,0.901,0.551,1.38c0.137,0.481,0.223,0.982,0.227,1.492c0.004,0.512-0.083,1.033-0.29,1.518   c-0.206,0.485-0.531,0.914-0.927,1.249l-1.088,0.926l-4.355,3.714l0.099-0.204l-0.227,4.909l-0.121,2.455l-0.066,1.229   l-0.033,0.616c-0.009,0.1-0.016,0.213-0.028,0.319c-0.015,0.108-0.031,0.214-0.051,0.322c-0.161,0.847-0.531,1.646-1.055,2.329   c-0.519,0.681-1.196,1.246-1.969,1.62c-0.769,0.38-1.624,0.571-2.473,0.599c-0.105,0.003-0.211,0.005-0.317,0.003l-0.308-0.005   l-0.611-0.009c-0.411-0.007-0.822-0.013-1.233-0.024c-1.642-0.04-3.29-0.131-4.922-0.35c-1.637-0.214-3.258-0.551-4.834-1.038   c-1.58-0.481-3.114-1.112-4.574-1.881c-1.459-0.77-2.843-1.674-4.14-2.688c-0.072-0.056-0.083-0.159-0.028-0.23   c0.05-0.067,0.146-0.083,0.215-0.04l0.015,0.008c1.385,0.869,2.816,1.64,4.298,2.262c1.479,0.631,3.002,1.117,4.545,1.469   c1.547,0.346,3.112,0.567,4.691,0.668c0.787,0.047,1.58,0.078,2.373,0.08c0.795,0.005,1.592-0.013,2.4-0.043l2.365-0.09   c0.615-0.042,1.182-0.2,1.666-0.461c0.489-0.263,0.903-0.634,1.221-1.085c0.16-0.225,0.293-0.469,0.396-0.723   c0.103-0.25,0.175-0.512,0.213-0.759c0.01-0.063,0.015-0.123,0.02-0.18l0.005-0.047c0-0.015,0-0.03,0-0.038v-0.02l0.004-0.02   v-0.009c0,0,0-0.018,0,0v-0.072l0.004-0.598l0.002-1.218l0.002-2.455c0.003-1.637,0.005-3.276,0.012-4.913   c0.006-0.598,0.262-1.135,0.669-1.51l0.122-0.109l2.112-1.932l2.119-1.928l1.062-0.959l0.02-0.02l0.017-0.017   c0.01-0.011,0.018-0.02,0.026-0.03c0.017-0.02,0.031-0.038,0.043-0.058c0.024-0.036,0.039-0.07,0.056-0.11   c0.015-0.041,0.027-0.091,0.038-0.158c0.01-0.066,0.017-0.148,0.013-0.247c-0.005-0.195-0.047-0.449-0.135-0.727   c-0.041-0.139-0.094-0.285-0.155-0.433c-0.032-0.074-0.066-0.149-0.102-0.225l-0.054-0.112l-0.056-0.109l-0.684-1.253   c-0.457-0.84-0.911-1.678-1.365-2.52l-1.355-2.522l-1.346-2.527c-0.121-0.226-0.202-0.461-0.243-0.703l-0.019-0.1   c-0.255-1.413-0.433-2.813-0.61-4.141c-0.179-1.328-0.355-2.581-0.632-3.698c-0.138-0.559-0.301-1.086-0.493-1.581   c-0.194-0.5-0.42-0.964-0.683-1.417c-0.262-0.449-0.562-0.879-0.903-1.299l-0.132-0.155l-0.125-0.147L66.608,22.1l-0.153-0.171   c-0.205-0.228-0.417-0.451-0.631-0.67c-0.855-0.88-1.762-1.708-2.723-2.469s-1.973-1.46-3.019-2.094   c-1.051-0.631-2.141-1.193-3.264-1.679c-1.123-0.488-2.274-0.905-3.453-1.246c-2.354-0.674-4.794-1.045-7.251-1.093   c-1.231-0.025-2.46,0.025-3.684,0.158c-0.609,0.065-1.217,0.151-1.82,0.256c-0.607,0.105-1.207,0.229-1.804,0.372   c-1.194,0.288-2.37,0.656-3.517,1.099c-1.148,0.44-2.27,0.957-3.351,1.546c-1.081,0.589-2.13,1.247-3.128,1.974   c-0.999,0.729-1.954,1.519-2.855,2.368c-1.798,1.703-3.382,3.638-4.689,5.758c-0.656,1.059-1.24,2.162-1.75,3.301   c-0.512,1.136-0.949,2.311-1.305,3.509c-0.36,1.2-0.638,2.426-0.834,3.668c-0.201,1.24-0.317,2.499-0.354,3.762   c-0.036,1.265,0.007,2.532,0.137,3.795c0.127,1.262,0.339,2.518,0.634,3.759c0.293,1.24,0.672,2.463,1.128,3.662   c0.454,1.199,0.995,2.37,1.604,3.506c0.611,1.137,1.301,2.236,2.062,3.287c0.76,1.054,1.588,2.063,2.483,3.019   c0.447,0.476,0.913,0.937,1.389,1.387c0.121,0.114,0.232,0.22,0.362,0.335l0.021,0.021c0.011,0.011-0.003-0.001,0.016,0.015   l0.054,0.047l0.106,0.097c0.07,0.065,0.141,0.133,0.207,0.202c0.276,0.271,0.532,0.564,0.763,0.878   c0.459,0.624,0.822,1.33,1.043,2.071c0.11,0.371,0.186,0.75,0.231,1.13c0.02,0.189,0.034,0.38,0.038,0.571v0.144   c0,0.048,0,0.101-0.004,0.141l-0.003,0.252c-0.014,0.681-0.023,1.359-0.042,2.038l-0.048,2.035   c-0.017,0.679-0.042,1.36-0.062,2.038l-0.035,1.018l-0.016,0.51l-0.009,0.254l-0.005,0.128l-0.002,0.065l-0.001,0.029   c-0.02,0.066,0.045-0.099-0.047,0.155c-0.065,0.065-0.169,0.066-0.234,0.003C28.73,76.974,28.73,76.871,28.793,76.805z" fill="#b8b0b0"></path><path style="" d="M36.056,43.788H32.28l-0.348-2.599c-0.648-0.245-1.31-0.668-2.06-1.317l-2.312,0.932l-1.885-3.265   l1.964-1.536c-0.07-0.389-0.104-0.788-0.104-1.189c0-0.393,0.034-0.789,0.103-1.182l-1.962-1.528l1.889-3.252l2.314,0.966   c0.56-0.467,1.236-0.838,2.06-1.123l0.348-2.342h3.766l0.35,2.342c0.701,0.238,1.427,0.537,2.06,1.06l2.312-0.934l1.886,3.268   l-1.962,1.533c0.072,0.393,0.108,0.793,0.108,1.193c0,0.402-0.036,0.804-0.108,1.198l1.962,1.543l-1.881,3.278l-2.312-0.901   c-0.672,0.583-1.364,1.002-2.065,1.258L36.056,43.788z M32.736,43.268h2.866l0.332-2.467l0.151-0.052   c0.725-0.238,1.449-0.68,2.155-1.311l0.119-0.104l2.189,0.854l1.437-2.5l-1.86-1.461l0.036-0.159   c0.081-0.413,0.123-0.831,0.123-1.254c0-0.418-0.042-0.838-0.123-1.247l-0.036-0.158l1.86-1.455l-1.431-2.485l-2.195,0.89   L38.24,30.25c-0.633-0.567-1.411-0.869-2.155-1.119l-0.151-0.045l-0.326-2.215h-2.875l-0.328,2.209l-0.151,0.051   c-0.886,0.295-1.593,0.681-2.151,1.18l-0.125,0.111l-2.193-0.919l-1.427,2.469l1.857,1.443l-0.034,0.159   c-0.085,0.41-0.128,0.824-0.128,1.238c0,0.418,0.043,0.84,0.128,1.244l0.034,0.16l-1.857,1.455l1.431,2.483l2.191-0.885   l0.123,0.106c0.804,0.713,1.487,1.149,2.151,1.372l0.155,0.052L32.736,43.268z M34.169,38.324c-1.936,0-3.514-1.575-3.514-3.511   c0-1.939,1.579-3.512,3.514-3.512c1.937,0,3.514,1.573,3.514,3.512C37.683,36.749,36.106,38.324,34.169,38.324z M34.169,31.822   c-1.649,0-2.993,1.342-2.993,2.991c0,1.651,1.344,2.993,2.993,2.993c1.652,0,2.993-1.342,2.993-2.993   C37.162,33.165,35.821,31.822,34.169,31.822z" fill="#b8b0b0"></path><path style="" d="M45.608,31.296h-2.77l-0.247-1.966c-0.47-0.201-0.89-0.583-1.261-0.919   c-0.038-0.036-0.076-0.074-0.116-0.106l-1.624,0.644l-1.39-2.357l1.39-1.061c-0.047-0.256-0.068-0.522-0.068-0.779   c0-0.265,0.021-0.517,0.068-0.773l-1.39-1.056l1.39-2.342l1.633,0.701c0.396-0.315,0.847-0.514,1.377-0.692l0.249-1.523h2.751   l0.247,1.518c0.04,0.012,0.08,0.027,0.112,0.038c0.452,0.137,0.88,0.271,1.267,0.564l1.636-0.643l1.385,2.358l-1.389,1.063   c0.047,0.258,0.068,0.519,0.068,0.779c0,0.269-0.021,0.541-0.068,0.8l1.384,1.083l-1.375,2.378l-1.629-0.581   c-0.425,0.364-0.875,0.709-1.38,0.907L45.608,31.296z M43.296,30.773h1.857l0.227-1.827l0.158-0.052   c0.524-0.171,1.019-0.564,1.475-0.96l0.111-0.105l1.509,0.544l0.935-1.62l-1.283-0.997l0.036-0.161   c0.056-0.271,0.087-0.564,0.087-0.854c0-0.278-0.027-0.559-0.087-0.833l-0.036-0.158l1.283-0.984l-0.93-1.582l-1.51,0.6   l-0.115-0.103c-0.343-0.299-0.739-0.419-1.206-0.563c-0.089-0.025-0.178-0.056-0.269-0.084l-0.154-0.049l-0.223-1.399h-1.872   l-0.227,1.395l-0.15,0.053c-0.595,0.189-1.072,0.392-1.474,0.742l-0.123,0.107l-1.512-0.646l-0.919,1.552l1.277,0.971l-0.033,0.163   c-0.059,0.277-0.086,0.545-0.086,0.829c0,0.279,0.027,0.555,0.086,0.833l0.033,0.16l-1.277,0.982l0.928,1.578l1.503-0.605   l0.123,0.11c0.082,0.066,0.161,0.141,0.242,0.216c0.377,0.343,0.8,0.726,1.232,0.869l0.157,0.052L43.296,30.773z M44.225,27.236   c-1.393,0-2.526-1.115-2.526-2.494c0-1.368,1.134-2.485,2.526-2.485c1.393,0,2.526,1.118,2.526,2.485   C46.751,26.121,45.618,27.236,44.225,27.236z M44.225,22.777c-1.106,0-2.004,0.88-2.004,1.965c0,1.087,0.897,1.974,2.004,1.974   c1.109,0,2.006-0.887,2.006-1.974C46.23,23.657,45.333,22.777,44.225,22.777z" fill="#b8b0b0"></path><path style="" d="M50.601,44.74h-3.276l-0.292-2.327c-0.557-0.236-1.052-0.688-1.492-1.085   c-0.045-0.043-0.091-0.088-0.139-0.128l-1.917,0.763l-1.643-2.789l1.643-1.256c-0.058-0.303-0.083-0.618-0.083-0.919   c0-0.315,0.025-0.614,0.083-0.916l-1.643-1.249l1.643-2.772l1.93,0.829c0.471-0.373,1.002-0.605,1.629-0.818l0.294-1.8h3.254   l0.292,1.796c0.045,0.011,0.094,0.031,0.134,0.045c0.533,0.158,1.04,0.315,1.497,0.665l1.937-0.764l1.637,2.792l-1.645,1.26   c0.058,0.304,0.085,0.613,0.085,0.921c0,0.319-0.027,0.636-0.085,0.944l1.64,1.279l-1.627,2.815l-1.929-0.688   c-0.501,0.43-1.036,0.84-1.631,1.074L50.601,44.74z M47.864,44.122h2.195l0.27-2.161l0.186-0.061   c0.624-0.206,1.204-0.668,1.744-1.139l0.133-0.123l1.784,0.646l1.106-1.917l-1.518-1.178l0.044-0.191   c0.062-0.317,0.099-0.666,0.099-1.008c0-0.33-0.031-0.661-0.099-0.986l-0.044-0.187l1.518-1.165l-1.102-1.871l-1.787,0.71   l-0.135-0.123c-0.404-0.353-0.873-0.497-1.427-0.665c-0.104-0.031-0.21-0.071-0.317-0.103l-0.183-0.058l-0.262-1.652h-2.215   l-0.266,1.648l-0.178,0.062c-0.704,0.226-1.271,0.465-1.746,0.877l-0.142,0.126l-1.79-0.76l-1.085,1.834l1.508,1.146l-0.038,0.193   c-0.072,0.328-0.103,0.646-0.103,0.982c0,0.328,0.031,0.654,0.103,0.982l0.038,0.191l-1.508,1.16l1.096,1.867l1.779-0.715   l0.142,0.13c0.098,0.077,0.193,0.166,0.288,0.256c0.446,0.405,0.944,0.859,1.458,1.029l0.186,0.061L47.864,44.122z M48.96,39.935   c-1.644,0-2.987-1.317-2.987-2.946c0-1.619,1.344-2.941,2.987-2.941c1.648,0,2.989,1.323,2.989,2.941   C51.949,38.618,50.608,39.935,48.96,39.935z M48.96,34.664c-1.308,0-2.365,1.04-2.365,2.325c0,1.285,1.058,2.33,2.365,2.33   c1.312,0,2.374-1.045,2.374-2.33C51.334,35.704,50.271,34.664,48.96,34.664z" fill="#b8b0b0"></path></g></g><g id="SvgjsG1008" featurekey="0yvIkK-0" transform="matrix(2.0905813029647815,0,0,2.0905813029647815,117.90921309324793,22.763180324240913)" fill="#dfd3d3"><path d="M6.746 21.1193 c0.1582 -0.10027 0.36748 -0.05289 0.46742 0.10514 s0.053028 0.36738 -0.10518 0.46748 c-0.37536 0.23764 -0.81642 0.36196 -1.2505 0.36196 c-0.19648 0 -0.39144 -0.02541 -0.57844 -0.077402 c-0.41378 -0.11518 -0.7268 -0.34876 -0.88126 -0.65754 c-0.17785 -0.35552 -0.18666 -0.76932 -0.024726 -1.1655 c0.078594 -0.19207 0.19326 -0.36772 0.33384 -0.51526 c-0.6101 -0.34164 -1.1913 -0.76696 -1.7031 -1.2478 c-0.0071094 -0.0066016 -0.013887 -0.013555 -0.020156 -0.020664 c-1.2793 -1.4258 -1.9838 -3.2646 -1.9838 -5.1774 c0 -1.2944 0.33538 -2.578 0.96954 -3.7116 c0.091288 -0.16328 0.29692 -0.2219 0.46104 -0.13025 c0.16328 0.091288 0.22172 0.29776 0.13025 0.46104 c-0.57776 1.0329 -0.88314 2.202 -0.88314 3.3808 c0 1.7407 0.63958 3.4144 1.8008 4.7142 c0.59418 0.5564 1.2886 1.0308 2.0084 1.3728 c0.11027 0.052344 0.18395 0.1599 0.19258 0.28168 s-0.048614 0.23882 -0.15023 0.3064 l-0.056914 0.03795 c-0.011523 0.007793 -0.023712 0.014746 -0.03625 0.021016 c-0.18734 0.093496 -0.3503 0.2744 -0.43566 0.48342 c-0.050312 0.12314 -0.11688 0.3657 0.0035546 0.60622 c0.066562 0.1333 0.23322 0.2456 0.4568 0.30778 c0.32284 0.08961 0.83012 0.08334 1.2851 -0.20444 z M15.926 19.753 c0.49882 0.62366 0.385 1.5236 -0.25916 2.049 c-1.092 0.83402 -2.2456 1.2714 -3.3442 1.2714 l-0.056914 0 c-1.4484 0 -2.655 -0.59926 -3.6442 -1.1855 c-0.16092 -0.095352 -0.2141 -0.30318 -0.11875 -0.4641 c0.095352 -0.16107 0.30336 -0.21408 0.4641 -0.11873 c0.91026 0.5393 2.014 1.0908 3.2988 1.0908 l0.056914 0 c0.94886 0 1.9602 -0.38924 2.9246 -1.1257 c0.34994 -0.28542 0.41788 -0.75866 0.14975 -1.0938 c-0.12941 -0.16158 -0.311 -0.26472 -0.51136 -0.29046 c-0.19732 -0.024902 -0.3933 0.029296 -0.54896 0.15379 c-0.749 0.56622 -1.3471 0.79506 -2.071 0.79506 c-0.63974 0 -1.4094 -0.24374 -2.2874 -0.7246 c-0.11535 -0.063184 -0.18379 -0.1875 -0.17531 -0.31876 s0.092148 -0.24576 0.21478 -0.2937 l0.42498 -0.16615 c0.75358 -0.36046 1.444 -0.8525 1.9973 -1.4235 c1.185 -1.2592 1.8395 -2.9348 1.8395 -4.7156 c0 -1.7624 -0.6538 -3.4174 -1.8412 -4.6604 c-1.1276 -1.2751 -2.7498 -2.001 -4.4598 -2.001 c-1.3223 0 -2.585 0.4265 -3.6514 1.2336 c-0.14973 0.11297 -0.3618 0.08332 -0.4746 -0.065742 c-0.11297 -0.14922 -0.083496 -0.3618 0.065722 -0.4746 c1.1853 -0.89688 2.5894 -1.371 4.0604 -1.371 c1.904 0 3.7112 0.80912 4.9584 2.22 c1.2995 1.36 2.02 3.1812 2.02 5.1186 c0 1.954 -0.71986 3.7948 -2.0272 5.1836 c-0.55778 0.57554 -1.2365 1.0754 -1.9773 1.4584 c0.50136 0.2146 0.94126 0.323 1.3132 0.323 c0.47546 0 0.93886 -0.11111 1.655 -0.65246 c0.29286 -0.23458 0.66886 -0.34046 1.0512 -0.291 c0.37568 0.048282 0.71446 0.23952 0.95412 0.53932 z M12.159 15.699 c-0.21562 0.41668 -0.48576 0.8 -0.803 1.1394 c-0.94394 0.96564 -2.1102 1.4731 -3.3774 1.4731 c-1.288 0 -2.4752 -0.5244 -3.3426 -1.4765 c-0.89992 -0.96276 -1.3972 -2.2576 -1.3972 -3.6428 c0 -1.4028 0.49898 -2.6862 1.4053 -3.6136 c0.85062 -0.95462 2.0386 -1.4868 3.3346 -1.4868 c1.2758 0 2.4428 0.51508 3.3748 1.4894 c0.9038 0.92498 1.403 2.2082 1.403 3.611 c0 0.18699 -0.15176 0.33876 -0.33876 0.33876 s-0.33876 -0.15176 -0.33876 -0.33876 c0 -1.2246 -0.43056 -2.3398 -1.2126 -3.1402 c-0.80354 -0.84012 -1.8013 -1.2827 -2.8878 -1.2827 c-1.1001 0 -2.1086 0.45156 -2.8394 1.2715 c-0.79252 0.81132 -1.2231 1.9265 -1.2231 3.1512 c0 1.2129 0.43226 2.3434 1.2175 3.1834 c0.74036 0.81268 1.7495 1.2585 2.8448 1.2585 c1.0808 0 2.0794 -0.437 2.888 -1.2639 c0.26964 -0.28846 0.5039 -0.62096 0.6909 -0.98242 c0.085878 -0.16615 0.29032 -0.23136 0.45646 -0.14516 c0.16615 0.085878 0.2312 0.29048 0.14516 0.45648 z M28.033 17.446 c0.11891 -0.14447 0.33266 -0.16518 0.47698 -0.04627 s0.16498 0.33232 0.046074 0.4768 c-1.1113 1.3495 -2.7494 2.1234 -4.4944 2.1234 c-3.2098 0 -5.8212 -2.6114 -5.8212 -5.8212 l0 -6.7535 c0 -0.77508 0.60704 -1.3821 1.3821 -1.3821 c0.77236 0 1.4009 0.61992 1.4009 1.3821 l0 2.3083 c0 0.18699 -0.15176 0.33876 -0.33876 0.33876 s-0.33876 -0.15176 -0.33876 -0.33876 l0 -2.3083 c0 -0.38856 -0.32454 -0.7046 -0.72342 -0.7046 c-0.40178 0 -0.70462 0.30286 -0.70462 0.70462 l0 6.7537 c0 2.8362 2.3074 5.1438 5.1438 5.1438 c1.5417 0 2.9892 -0.68396 3.9714 -1.8766 z M28.5 6.042999999999999 c0.77526 0 1.3824 0.6071 1.3821 1.3822 l0 6.7537 c0 0.58522 -0.086894 1.1637 -0.25866 1.719 c-0.05539 0.17869 -0.2451 0.27846 -0.42378 0.22358 c-0.17854 -0.055214 -0.2788 -0.24492 -0.2236 -0.42378 c0.15176 -0.4907 0.22866 -1.0016 0.22866 -1.519 l0 -6.7535 c0 -0.40178 -0.30286 -0.70462 -0.70462 -0.70462 c-0.40566 0 -0.7236 0.30946 -0.7236 0.7046 l0 6.7535 c0 2.0488 -1.6667 3.7156 -3.7156 3.7156 s-3.7156 -1.6667 -3.7156 -3.7156 l0 -2.7795 c0 -0.18699 0.15176 -0.33876 0.33876 -0.33876 s0.33876 0.15176 0.33876 0.33876 l0 2.7795 c0 1.6752 1.3628 3.038 3.0382 3.038 c1.6752 0 3.038 -1.3628 3.038 -3.038 l0 -6.7535 c0 -0.77508 0.61536 -1.3821 1.4011 -1.3821 z M34.324400000000004 15.3926 c0.18717 0 0.33878 0.15174 0.33878 0.33872 l0 2.8862 c0 0.7622 -0.6284 1.3821 -1.4011 1.3821 c-0.77508 0 -1.3821 -0.60704 -1.3821 -1.3821 l0 -7.076 c0 -0.18699 0.15176 -0.33876 0.33876 -0.33876 s0.33876 0.15176 0.33876 0.33876 l0 7.076 c0 0.40178 0.30286 0.70462 0.70462 0.70462 c0.39888 0 0.7236 -0.31606 0.7236 -0.7046 l0 -2.8862 c0 -0.18699 0.15176 -0.33876 0.33876 -0.33876 z M33.2622 6.042999999999999 c0.77254 0 1.4011 0.6199 1.4011 1.3821 l0 6.7159 c0 0.18699 -0.15176 0.33876 -0.33876 0.33876 s-0.33876 -0.15176 -0.33876 -0.33876 l0 -6.7159 c0 -0.38856 -0.32454 -0.7046 -0.7236 -0.7046 c-0.4016 0 -0.70462 0.30286 -0.70462 0.70462 l0 2.7201 c0 0.18699 -0.15176 0.33876 -0.33876 0.33876 s-0.33876 -0.15176 -0.33876 -0.33876 l0 -2.7201 c0 -0.77508 0.60704 -1.3821 1.3821 -1.3821 z M41.764 19.32248 c0.18717 0 0.33922 0.15182 0.33922 0.3388 s-0.15176 0.33876 -0.33876 0.33876 l-3.7218 0 c-0.05912 0 -0.13805 0 -0.23832 -0.021348 c-0.042676 -0.0042382 -0.082656 -0.014063 -0.11992 -0.029472 c-0.0054296 -0.0011914 -0.010508 -0.0023828 -0.015254 -0.0035742 c-0.079278 0 -0.16041 -0.029804 -0.22208 -0.080626 c-0.011523 -0.0079688 -0.024062 -0.017285 -0.036758 -0.0283 c-0.015586 -0.0071094 -0.030488 -0.01457 -0.045058 -0.021856 c-0.042344 -0.016602 -0.10807 -0.04166 -0.17158 -0.10619 c-0.0062696 -0.0066016 -0.012363 -0.013203 -0.018125 -0.020156 c-0.016094 -0.014063 -0.028632 -0.026602 -0.037618 -0.035742 c-0.023378 -0.023028 -0.050644 -0.05166 -0.07707 -0.085704 c-0.03455 -0.025742 -0.058086 -0.049278 -0.073848 -0.065038 c-0.023028 -0.022872 -0.048106 -0.05539 -0.070976 -0.089766 c0.00050782 0 0.0076172 0.0076172 0.014063 0.013887 c-0.03709 -0.036934 -0.065038 -0.082324 -0.08164 -0.13213 c-0.002871 -0.008125 -0.0057422 -0.013535 -0.0079492 -0.017598 c-0.0030468 -0.0064454 -0.0071094 -0.014414 -0.011172 -0.02373 c-0.02795 -0.035058 -0.064024 -0.088926 -0.081816 -0.16193 c-0.0098242 -0.027774 -0.015918 -0.051484 -0.01998 -0.068262 c-0.00050782 -0.00083984 0.0010156 0.0011914 0.005254 0.0098242 c-0.010156 -0.020664 -0.018125 -0.042168 -0.023886 -0.064356 c-0.012871 -0.034044 -0.029804 -0.089082 -0.029804 -0.16072 c-0.0089844 -0.034726 -0.018809 -0.078262 -0.018809 -0.13264 l0 -0.075879 c0 -0.054532 0 -0.11855 0.018809 -0.18969 l0 -0.037949 c0 -0.056074 0.013711 -0.11045 0.039454 -0.15889 c0.003379 -0.010664 0.0069336 -0.021328 0.010664 -0.031992 c0.0030468 -0.011855 0.005918 -0.022012 0.008457 -0.030488 c0.0072852 -0.079102 0.042344 -0.15244 0.097226 -0.20766 c0.01 -0.018125 0.021524 -0.035058 0.034726 -0.051152 c0.005586 -0.0098242 0.01084 -0.021348 0.016426 -0.032364 c0.024044 -0.04793 0.058594 -0.088418 0.099922 -0.11941 l3.5158 -4.8452 c0.10992 -0.15125 0.32148 -0.18461 0.47324 -0.075196 c0.15125 0.10992 0.18496 0.32164 0.075196 0.47324 l-3.5684 4.9178 c-0.012539 0.017109 -0.026426 0.032872 -0.041504 0.04709 c-0.0011914 0.0016992 -0.002207 0.0033984 -0.0033984 0.005254 c-0.013203 0.030488 -0.030136 0.059786 -0.050294 0.086894 c-0.004746 0.022364 -0.012031 0.044218 -0.021348 0.065214 c-0.002539 0.0088086 -0.005254 0.018633 -0.0088086 0.029296 l0 0.02252 c0 0.038106 -0.0064454 0.07588 -0.018984 0.11162 c0 0.0066016 0.00017578 0.013555 0.00017578 0.021172 l0 0.055391 c0.0066016 0.029804 0.013711 0.064688 0.01709 0.10584 c0.002207 0.0064454 0.0042382 0.013398 0.0064454 0.02086 c0.012031 0.031328 0.018809 0.058594 0.023378 0.07705 l0 0.00068359 c-0.00050782 0 -0.002207 -0.0042382 -0.004746 -0.0093164 c0.002207 0.004746 0.004414 0.0094922 0.0064454 0.014238 c0.015586 0.020156 0.032696 0.04539 0.048282 0.076386 c0.0084766 0.016602 0.015254 0.033886 0.02084 0.051504 c0.0040626 0.0088086 0.008457 0.017793 0.012695 0.02795 c0.0016992 0.0027148 0.0035546 0.0050782 0.005254 0.007793 c0.052168 0.030664 0.095528 0.074532 0.125 0.12754 c0.00033204 0.00050782 0.00083984 0.0010156 0.0011719 0.0013477 c0.027266 0.015254 0.052324 0.034062 0.074336 0.056074 c0.0045704 0.0023632 0.0088086 0.0042188 0.012695 0.00625 c0.049296 0.012188 0.095038 0.035214 0.134 0.06705 c0.038282 0.0027148 0.075546 0.012031 0.11043 0.027286 c0.0011914 0.00033204 0.0023828 0.00066406 0.0037304 0.00083984 c0.033868 0.0086328 0.057402 0.0089648 0.10736 0.0089648 l3.7218 0 z M47.422000000000004 8.128 c-0.010332 0.04455 -0.029532 0.086836 -0.056972 0.12342 l-6.5852 8.965 l5.4393 0 c0.77236 0 1.4009 0.6284 1.4009 1.4011 c0 0.77508 -0.6152 1.3821 -1.401 1.3821 l-1.9704 0 c-0.18699 0 -0.33876 -0.15176 -0.33876 -0.33876 s0.15176 -0.33876 0.33876 -0.33876 l1.9704 0 c0.40566 0 0.72342 -0.30946 0.72342 -0.7046 c0 -0.39888 -0.32454 -0.7236 -0.72342 -0.7236 l-6.1083 0 c-0.12771 0 -0.24442 -0.071816 -0.30216 -0.1858 s-0.046406 -0.25068 0.02914 -0.3535 l6.9274 -9.4312 c0.012363 -0.045214 0.034218 -0.087734 0.064376 -0.12449 c0.005586 -0.0098242 0.01084 -0.021172 0.01627 -0.032188 c0.0083008 -0.01627 0.017793 -0.032032 0.028456 -0.046758 c0.00083984 -0.0015234 0.0018555 -0.0032226 0.002871 -0.0050782 c0.0049218 -0.018125 0.011191 -0.03998 0.021192 -0.065898 c0.008125 -0.03168 0.018965 -0.058282 0.029296 -0.07912 c0.002871 -0.022364 0.0074414 -0.046758 0.015234 -0.073516 l0 -0.14719 l0 -0.0016992 c-0.0030468 -0.01 -0.005918 -0.021172 -0.0086328 -0.032696 c-0.022364 -0.03709 -0.037442 -0.078418 -0.044218 -0.12145 c-0.0035546 -0.013711 -0.007793 -0.030644 -0.011523 -0.049962 c-0.0062696 -0.012539 -0.012363 -0.025586 -0.017793 -0.038964 c-0.01168 -0.018633 -0.022012 -0.037442 -0.031836 -0.055742 c-0.011172 -0.0088086 -0.021836 -0.018125 -0.032168 -0.028282 c-0.033712 -0.03336 -0.056582 -0.067402 -0.07166 -0.090098 c0.00033204 0 0.0079492 0.007793 0.014551 0.014395 c-0.013555 -0.013555 -0.02625 -0.028282 -0.038946 -0.044376 c-0.013047 -0.0096484 -0.025586 -0.020312 -0.03711 -0.031836 c-0.027618 -0.01457 -0.04998 -0.028632 -0.071836 -0.04336 c-0.024902 -0.012539 -0.05455 -0.032188 -0.078946 -0.052344 c-0.014902 -0.0057618 -0.029296 -0.012715 -0.043184 -0.020508 c-0.0057618 -0.002207 -0.011855 -0.0045704 -0.018301 -0.0072852 c-0.0086328 -0.002207 -0.01625 -0.0042382 -0.022696 -0.0060938 c-0.041504 -0.0018555 -0.076054 -0.010488 -0.1023 -0.018457 l-8.2832 0 c-0.40178 0 -0.70462 0.30286 -0.70462 0.70462 c0 0.39888 0.31606 0.72342 0.7046 0.72342 l6.1275 0 c0.12754 0 0.24424 0.07164 0.302 0.18547 s0.046582 0.25036 -0.028614 0.35334 l-2.2396 3.0636 c-0.11027 0.15092 -0.32184 0.18412 -0.47344 0.073516 c-0.15109 -0.11027 -0.18395 -0.32234 -0.073516 -0.47344 l1.8457 -2.5248 l-5.4601 0 c-0.7622 0 -1.3821 -0.6284 -1.3821 -1.4009 c0 -0.77508 0.60704 -1.3821 1.3821 -1.3821 l8.3279 0 c0.053868 0 0.09791 0.01168 0.12857 0.021504 c0.044044 0.0040626 0.07791 0.012539 0.099922 0.018633 c0.045214 0.005254 0.088574 0.019473 0.12787 0.041484 c0.005586 0.002207 0.01168 0.0045704 0.018125 0.0072852 c0.074864 0.018809 0.14178 0.057266 0.20072 0.1157 c0.00050782 0.00033204 0.00083984 0.00050782 0.0013477 0.00083984 c0.017109 0.0054296 0.033886 0.012207 0.04998 0.020332 c0.068086 0.034044 0.11229 0.07588 0.1426 0.11281 c0.043692 0.03625 0.071972 0.073008 0.088906 0.09502 c0.017109 0.018125 0.031328 0.036758 0.042676 0.053184 c0.060468 0.045742 0.10672 0.10316 0.14279 0.17582 c0.0049024 0.01 0.010156 0.021016 0.015586 0.031016 c0.025058 0.030488 0.044376 0.065038 0.057422 0.1018 c0.032344 0.048614 0.051992 0.10502 0.05623 0.16379 c0.036426 0.061484 0.050644 0.12094 0.055566 0.17582 c0.019316 0.07164 0.021172 0.11924 0.021172 0.17158 l0 0.20885 c0 0.03998 -0.0071094 0.07961 -0.02082 0.11705 c-0.0071094 0.076562 -0.032012 0.13467 -0.050468 0.17059 c-0.005586 0.018125 -0.012539 0.035742 -0.021172 0.053028 c-0.0038868 0.019316 -0.0099804 0.040996 -0.019805 0.070136 c-0.01084 0.033028 -0.026934 0.064024 -0.047266 0.091972 c-0.0062696 0.011016 -0.013887 0.024394 -0.023886 0.038788 c-0.004746 0.0091406 -0.009668 0.018457 -0.014922 0.02795 z"></path></g></svg>